<svg class="main-svg" xmlns="http://www.w3.org/2000/svg" xmlns:xlink="http://www.w3.org/1999/xlink" width="775" height="650" style="" viewBox="0 0 775 650"><rect x="0" y="0" width="775" height="650" style="fill: rgb(0, 0, 0); fill-opacity: 1;"/><defs id="defs-5f33f7"><g class="clips"><clipPath id="clip5f33f7xyplot" class="plotclip"><rect width="660" height="520"/></clipPath><clipPath class="axesclip" id="clip5f33f7x"><rect x="60" y="0" width="660" height="650"/></clipPath><clipPath class="axesclip" id="clip5f33f7y"><rect x="0" y="70" width="775" height="520"/></clipPath><clipPath class="axesclip" id="clip5f33f7xy"><rect x="60" y="70" width="660" height="520"/></clipPath></g><g class="gradients"/><g class="patterns"/></defs><g class="bglayer"/><g class="layer-below"><g class="imagelayer"/><g class="shapelayer"/></g><g class="cartesianlayer"><g class="subplot xy"><g class="layer-subplot"><g class="shapelayer"/><g class="imagelayer"/></g><g class="minor-gridlayer"><g class="x"/><g class="y"/></g><g class="gridlayer"><g class="x"><path class="xgrid crisp" transform="translate(106.19,0)" d="M0,70v520" style="stroke: rgb(58, 58, 58); stroke-opacity: 1; stroke-width: 0.5px;"/><path class="xgrid crisp" transform="translate(167.26,0)" d="M0,70v520" style="stroke: rgb(58, 58, 58); stroke-opacity: 1; stroke-width: 0.5px;"/><path class="xgrid crisp" transform="translate(213.45,0)" d="M0,70v520" style="stroke: rgb(58, 58, 58); stroke-opacity: 1; stroke-width: 0.5px;"/><path class="xgrid crisp" transform="translate(259.65,0)" d="M0,70v520" style="stroke: rgb(58, 58, 58); stroke-opacity: 1; stroke-width: 0.5px;"/><path class="xgrid crisp" transform="translate(320.71,0)" d="M0,70v520" style="stroke: rgb(58, 58, 58); stroke-opacity: 1; stroke-width: 0.5px;"/><path class="xgrid crisp" transform="translate(366.9,0)" d="M0,70v520" style="stroke: rgb(58, 58, 58); stroke-opacity: 1; stroke-width: 0.5px;"/><path class="xgrid crisp" transform="translate(413.1,0)" d="M0,70v520" style="stroke: rgb(58, 58, 58); stroke-opacity: 1; stroke-width: 0.5px;"/><path class="xgrid crisp" transform="translate(474.16,0)" d="M0,70v520" style="stroke: rgb(58, 58, 58); stroke-opacity: 1; stroke-width: 0.5px;"/><path class="xgrid crisp" transform="translate(520.35,0)" d="M0,70v520" style="stroke: rgb(58, 58, 58); stroke-opacity: 1; stroke-width: 0.5px;"/><path class="xgrid crisp" transform="translate(566.55,0)" d="M0,70v520" style="stroke: rgb(58, 58, 58); stroke-opacity: 1; stroke-width: 0.5px;"/><path class="xgrid crisp" transform="translate(627.61,0)" d="M0,70v520" style="stroke: rgb(58, 58, 58); stroke-opacity: 1; stroke-width: 0.5px;"/><path class="xgrid crisp" transform="translate(673.81,0)" d="M0,70v520" style="stroke: rgb(58, 58, 58); stroke-opacity: 1; stroke-width: 0.5px;"/></g><g class="y"><path class="ygrid crisp" transform="translate(0,547.6800000000001)" d="M60,0h660" style="stroke: rgb(58, 58, 58); stroke-opacity: 1; stroke-width: 0.5px;"/><path class="ygrid crisp" transform="translate(0,491.74)" d="M60,0h660" style="stroke: rgb(58, 58, 58); stroke-opacity: 1; stroke-width: 0.5px;"/><path class="ygrid crisp" transform="translate(0,449.42)" d="M60,0h660" style="stroke: rgb(58, 58, 58); stroke-opacity: 1; stroke-width: 0.5px;"/><path class="ygrid crisp" transform="translate(0,407.1)" d="M60,0h660" style="stroke: rgb(58, 58, 58); stroke-opacity: 1; stroke-width: 0.5px;"/><path class="ygrid crisp" transform="translate(0,351.16)" d="M60,0h660" style="stroke: rgb(58, 58, 58); stroke-opacity: 1; stroke-width: 0.5px;"/><path class="ygrid crisp" transform="translate(0,308.84000000000003)" d="M60,0h660" style="stroke: rgb(58, 58, 58); stroke-opacity: 1; stroke-width: 0.5px;"/><path class="ygrid crisp" transform="translate(0,266.52)" d="M60,0h660" style="stroke: rgb(58, 58, 58); stroke-opacity: 1; stroke-width: 0.5px;"/><path class="ygrid crisp" transform="translate(0,210.58)" d="M60,0h660" style="stroke: rgb(58, 58, 58); stroke-opacity: 1; stroke-width: 0.5px;"/><path class="ygrid crisp" transform="translate(0,168.26)" d="M60,0h660" style="stroke: rgb(58, 58, 58); stroke-opacity: 1; stroke-width: 0.5px;"/><path class="ygrid crisp" transform="translate(0,125.94)" d="M60,0h660" style="stroke: rgb(58, 58, 58); stroke-opacity: 1; stroke-width: 0.5px;"/></g></g><g class="zerolinelayer"/><g class="layer-between"><g class="shapelayer"/><g class="imagelayer"/></g><path class="xlines-below"/><path class="ylines-below"/><g class="overlines-below"/><g class="xaxislayer-below"/><g class="yaxislayer-below"/><g class="overaxes-below"/><g class="overplot"><g class="xy" transform="translate(60,70)" clip-path="url(#clip5f33f7xyplot)"><g class="scatterlayer mlayer"><g class="trace scatter traceae69e0" style="stroke-miterlimit: 2; opacity: 1;"><g class="fills"/><g class="errorbars"/><g class="lines"><path class="js-line" d="M0,520L660,-84.64" style="vector-effect: none; fill: none; stroke: rgb(58, 58, 58); stroke-opacity: 1; stroke-dasharray: 9px, 9px; stroke-width: 1px; opacity: 1;"/></g><g class="points"/><g class="text"/></g><g class="trace scatter trace18cb8e" style="stroke-miterlimit: 2; opacity: 1;"><g class="fills"/><g class="errorbars"/><g class="lines"><path class="js-line" d="M251.85,290.59L456.47,103.25L507.74,65.98L558.75,66.92" style="vector-effect: none; fill: none; stroke: rgb(118, 185, 0); stroke-opacity: 1; stroke-width: 2.5px; opacity: 1;"/></g><g class="points"><path class="point" transform="translate(251.85,290.59)" d="M3.5,0A3.5,3.5 0 1,1 0,-3.5A3.5,3.5 0 0,1 3.5,0Z" style="opacity: 1; stroke-width: 1px; fill: rgb(118, 185, 0); fill-opacity: 1; stroke: rgb(0, 0, 0); stroke-opacity: 1;"/><path class="point" transform="translate(302.99,243.75)" d="M3.5,0A3.5,3.5 0 1,1 0,-3.5A3.5,3.5 0 0,1 3.5,0Z" style="opacity: 1; stroke-width: 1px; fill: rgb(118, 185, 0); fill-opacity: 1; stroke: rgb(0, 0, 0); stroke-opacity: 1;"/><path class="point" transform="translate(354.16,196.89)" d="M3.5,0A3.5,3.5 0 1,1 0,-3.5A3.5,3.5 0 0,1 3.5,0Z" style="opacity: 1; stroke-width: 1px; fill: rgb(118, 185, 0); fill-opacity: 1; stroke: rgb(0, 0, 0); stroke-opacity: 1;"/><path class="point" transform="translate(405.3,150.03)" d="M3.5,0A3.5,3.5 0 1,1 0,-3.5A3.5,3.5 0 0,1 3.5,0Z" style="opacity: 1; stroke-width: 1px; fill: rgb(118, 185, 0); fill-opacity: 1; stroke: rgb(0, 0, 0); stroke-opacity: 1;"/><path class="point" transform="translate(456.47,103.25)" d="M3.5,0A3.5,3.5 0 1,1 0,-3.5A3.5,3.5 0 0,1 3.5,0Z" style="opacity: 1; stroke-width: 1px; fill: rgb(118, 185, 0); fill-opacity: 1; stroke: rgb(0, 0, 0); stroke-opacity: 1;"/><path class="point" transform="translate(507.74,65.98)" d="M3.5,0A3.5,3.5 0 1,1 0,-3.5A3.5,3.5 0 0,1 3.5,0Z" style="opacity: 1; stroke-width: 1px; fill: rgb(118, 185, 0); fill-opacity: 1; stroke: rgb(0, 0, 0); stroke-opacity: 1;"/><path class="point" transform="translate(558.75,66.92)" d="M3.5,0A3.5,3.5 0 1,1 0,-3.5A3.5,3.5 0 0,1 3.5,0Z" style="opacity: 1; stroke-width: 1px; fill: rgb(118, 185, 0); fill-opacity: 1; stroke: rgb(0, 0, 0); stroke-opacity: 1;"/></g><g class="text"/></g><g class="trace scatter trace69795f" style="stroke-miterlimit: 2; opacity: 1;"><g class="fills"/><g class="errorbars"/><g class="lines"><path class="js-line" d="M200.7,337.45L405.3,150.03L456.47,109.71L507.74,116.69L558.75,112.86" style="vector-effect: none; fill: none; stroke: rgb(0, 133, 100); stroke-opacity: 1; stroke-width: 2.5px; opacity: 1;"/></g><g class="points"><path class="point" transform="translate(200.7,337.45)" d="M3.5,0A3.5,3.5 0 1,1 0,-3.5A3.5,3.5 0 0,1 3.5,0Z" style="opacity: 1; stroke-width: 1px; fill: rgb(0, 133, 100); fill-opacity: 1; stroke: rgb(0, 0, 0); stroke-opacity: 1;"/><path class="point" transform="translate(251.85,290.59)" d="M3.5,0A3.5,3.5 0 1,1 0,-3.5A3.5,3.5 0 0,1 3.5,0Z" style="opacity: 1; stroke-width: 1px; fill: rgb(0, 133, 100); fill-opacity: 1; stroke: rgb(0, 0, 0); stroke-opacity: 1;"/><path class="point" transform="translate(302.99,243.76)" d="M3.5,0A3.5,3.5 0 1,1 0,-3.5A3.5,3.5 0 0,1 3.5,0Z" style="opacity: 1; stroke-width: 1px; fill: rgb(0, 133, 100); fill-opacity: 1; stroke: rgb(0, 0, 0); stroke-opacity: 1;"/><path class="point" transform="translate(354.16,196.89)" d="M3.5,0A3.5,3.5 0 1,1 0,-3.5A3.5,3.5 0 0,1 3.5,0Z" style="opacity: 1; stroke-width: 1px; fill: rgb(0, 133, 100); fill-opacity: 1; stroke: rgb(0, 0, 0); stroke-opacity: 1;"/><path class="point" transform="translate(405.3,150.03)" d="M3.5,0A3.5,3.5 0 1,1 0,-3.5A3.5,3.5 0 0,1 3.5,0Z" style="opacity: 1; stroke-width: 1px; fill: rgb(0, 133, 100); fill-opacity: 1; stroke: rgb(0, 0, 0); stroke-opacity: 1;"/><path class="point" transform="translate(456.47,109.71)" d="M3.5,0A3.5,3.5 0 1,1 0,-3.5A3.5,3.5 0 0,1 3.5,0Z" style="opacity: 1; stroke-width: 1px; fill: rgb(0, 133, 100); fill-opacity: 1; stroke: rgb(0, 0, 0); stroke-opacity: 1;"/><path class="point" transform="translate(507.74,116.69)" d="M3.5,0A3.5,3.5 0 1,1 0,-3.5A3.5,3.5 0 0,1 3.5,0Z" style="opacity: 1; stroke-width: 1px; fill: rgb(0, 133, 100); fill-opacity: 1; stroke: rgb(0, 0, 0); stroke-opacity: 1;"/><path class="point" transform="translate(558.75,112.86)" d="M3.5,0A3.5,3.5 0 1,1 0,-3.5A3.5,3.5 0 0,1 3.5,0Z" style="opacity: 1; stroke-width: 1px; fill: rgb(0, 133, 100); fill-opacity: 1; stroke: rgb(0, 0, 0); stroke-opacity: 1;"/></g><g class="text"/></g><g class="trace scatter traced526d1" style="stroke-miterlimit: 2; opacity: 1;"><g class="fills"/><g class="errorbars"/><g class="lines"><path class="js-line" d="M98.4,431.17L200.7,337.45L251.85,309.28L302.99,302.89L354.16,302.77" style="vector-effect: none; fill: none; stroke: rgb(250, 194, 0); stroke-opacity: 1; stroke-width: 2.5px; opacity: 1;"/></g><g class="points"><path class="point" transform="translate(98.4,431.17)" d="M3.5,0A3.5,3.5 0 1,1 0,-3.5A3.5,3.5 0 0,1 3.5,0Z" style="opacity: 1; stroke-width: 1px; fill: rgb(250, 194, 0); fill-opacity: 1; stroke: rgb(0, 0, 0); stroke-opacity: 1;"/><path class="point" transform="translate(149.55,384.31)" d="M3.5,0A3.5,3.5 0 1,1 0,-3.5A3.5,3.5 0 0,1 3.5,0Z" style="opacity: 1; stroke-width: 1px; fill: rgb(250, 194, 0); fill-opacity: 1; stroke: rgb(0, 0, 0); stroke-opacity: 1;"/><path class="point" transform="translate(200.7,337.45)" d="M3.5,0A3.5,3.5 0 1,1 0,-3.5A3.5,3.5 0 0,1 3.5,0Z" style="opacity: 1; stroke-width: 1px; fill: rgb(250, 194, 0); fill-opacity: 1; stroke: rgb(0, 0, 0); stroke-opacity: 1;"/><path class="point" transform="translate(251.85,309.28)" d="M3.5,0A3.5,3.5 0 1,1 0,-3.5A3.5,3.5 0 0,1 3.5,0Z" style="opacity: 1; stroke-width: 1px; fill: rgb(250, 194, 0); fill-opacity: 1; stroke: rgb(0, 0, 0); stroke-opacity: 1;"/><path class="point" transform="translate(302.99,302.89)" d="M3.5,0A3.5,3.5 0 1,1 0,-3.5A3.5,3.5 0 0,1 3.5,0Z" style="opacity: 1; stroke-width: 1px; fill: rgb(250, 194, 0); fill-opacity: 1; stroke: rgb(0, 0, 0); stroke-opacity: 1;"/><path class="point" transform="translate(354.16,302.77)" d="M3.5,0A3.5,3.5 0 1,1 0,-3.5A3.5,3.5 0 0,1 3.5,0Z" style="opacity: 1; stroke-width: 1px; fill: rgb(250, 194, 0); fill-opacity: 1; stroke: rgb(0, 0, 0); stroke-opacity: 1;"/></g><g class="text"/></g><g class="trace scatter trace55b887" style="stroke-miterlimit: 2; opacity: 1;"><g class="fills"/><g class="errorbars"/><g class="lines"><path class="js-line" d="M64.19,462.51L115.34,415.65L166.49,397.16L217.64,392.29L268.78,393.02" style="vector-effect: none; fill: none; stroke: rgb(150, 150, 150); stroke-opacity: 1; stroke-width: 2.5px; opacity: 1;"/></g><g class="points"><path class="point" transform="translate(64.19,462.51)" d="M3.5,0A3.5,3.5 0 1,1 0,-3.5A3.5,3.5 0 0,1 3.5,0Z" style="opacity: 1; stroke-width: 1px; fill: rgb(150, 150, 150); fill-opacity: 1; stroke: rgb(0, 0, 0); stroke-opacity: 1;"/><path class="point" transform="translate(115.34,415.65)" d="M3.5,0A3.5,3.5 0 1,1 0,-3.5A3.5,3.5 0 0,1 3.5,0Z" style="opacity: 1; stroke-width: 1px; fill: rgb(150, 150, 150); fill-opacity: 1; stroke: rgb(0, 0, 0); stroke-opacity: 1;"/><path class="point" transform="translate(166.49,397.16)" d="M3.5,0A3.5,3.5 0 1,1 0,-3.5A3.5,3.5 0 0,1 3.5,0Z" style="opacity: 1; stroke-width: 1px; fill: rgb(150, 150, 150); fill-opacity: 1; stroke: rgb(0, 0, 0); stroke-opacity: 1;"/><path class="point" transform="translate(217.64,392.29)" d="M3.5,0A3.5,3.5 0 1,1 0,-3.5A3.5,3.5 0 0,1 3.5,0Z" style="opacity: 1; stroke-width: 1px; fill: rgb(150, 150, 150); fill-opacity: 1; stroke: rgb(0, 0, 0); stroke-opacity: 1;"/><path class="point" transform="translate(268.78,393.02)" d="M3.5,0A3.5,3.5 0 1,1 0,-3.5A3.5,3.5 0 0,1 3.5,0Z" style="opacity: 1; stroke-width: 1px; fill: rgb(150, 150, 150); fill-opacity: 1; stroke: rgb(0, 0, 0); stroke-opacity: 1;"/></g><g class="text"/></g><g class="trace scatter trace2335c9" style="stroke-miterlimit: 2; opacity: 1;"><g class="fills"/><g class="errorbars"/><g class="lines"><path class="js-line" d="M64.19,462.51L115.34,440.65L166.49,437.69L217.64,437.95" style="vector-effect: none; fill: none; stroke: rgb(118, 118, 118); stroke-opacity: 1; stroke-width: 2.5px; opacity: 1;"/></g><g class="points"><path class="point" transform="translate(64.19,462.51)" d="M3.5,0A3.5,3.5 0 1,1 0,-3.5A3.5,3.5 0 0,1 3.5,0Z" style="opacity: 1; stroke-width: 1px; fill: rgb(118, 118, 118); fill-opacity: 1; stroke: rgb(0, 0, 0); stroke-opacity: 1;"/><path class="point" transform="translate(115.34,440.65)" d="M3.5,0A3.5,3.5 0 1,1 0,-3.5A3.5,3.5 0 0,1 3.5,0Z" style="opacity: 1; stroke-width: 1px; fill: rgb(118, 118, 118); fill-opacity: 1; stroke: rgb(0, 0, 0); stroke-opacity: 1;"/><path class="point" transform="translate(166.49,437.69)" d="M3.5,0A3.5,3.5 0 1,1 0,-3.5A3.5,3.5 0 0,1 3.5,0Z" style="opacity: 1; stroke-width: 1px; fill: rgb(118, 118, 118); fill-opacity: 1; stroke: rgb(0, 0, 0); stroke-opacity: 1;"/><path class="point" transform="translate(217.64,437.95)" d="M3.5,0A3.5,3.5 0 1,1 0,-3.5A3.5,3.5 0 0,1 3.5,0Z" style="opacity: 1; stroke-width: 1px; fill: rgb(118, 118, 118); fill-opacity: 1; stroke: rgb(0, 0, 0); stroke-opacity: 1;"/></g><g class="text"/></g></g></g></g><g class="zerolinelayer-above"/><path class="xlines-above crisp" d="M0,0" style="fill: none;"/><path class="ylines-above crisp" d="M0,0" style="fill: none;"/><g class="overlines-above"/><g class="xaxislayer-above"><g class="xtick"><text text-anchor="middle" x="0" y="601" transform="translate(60,0)" style="font-family: 'Roboto Mono', 'SF Mono', Menlo, Consolas, 'Liberation Mono', monospace; font-size: 10px; fill: rgb(205, 205, 205); fill-opacity: 1; white-space: pre;">100k</text></g><g class="xtick"><text text-anchor="middle" x="0" y="601" style="font-family: 'Roboto Mono', 'SF Mono', Menlo, Consolas, 'Liberation Mono', monospace; font-size: 10px; fill: rgb(205, 205, 205); fill-opacity: 1; white-space: pre;" transform="translate(106.19,0)">200k</text></g><g class="xtick"><text text-anchor="middle" x="0" y="601" style="font-family: 'Roboto Mono', 'SF Mono', Menlo, Consolas, 'Liberation Mono', monospace; font-size: 10px; fill: rgb(205, 205, 205); fill-opacity: 1; white-space: pre;" transform="translate(167.26,0)">500k</text></g><g class="xtick"><text text-anchor="middle" x="0" y="601" style="font-family: 'Roboto Mono', 'SF Mono', Menlo, Consolas, 'Liberation Mono', monospace; font-size: 10px; fill: rgb(205, 205, 205); fill-opacity: 1; white-space: pre;" transform="translate(213.45,0)">1.0M</text></g><g class="xtick"><text text-anchor="middle" x="0" y="601" style="font-family: 'Roboto Mono', 'SF Mono', Menlo, Consolas, 'Liberation Mono', monospace; font-size: 10px; fill: rgb(205, 205, 205); fill-opacity: 1; white-space: pre;" transform="translate(259.65,0)">2.0M</text></g><g class="xtick"><text text-anchor="middle" x="0" y="601" style="font-family: 'Roboto Mono', 'SF Mono', Menlo, Consolas, 'Liberation Mono', monospace; font-size: 10px; fill: rgb(205, 205, 205); fill-opacity: 1; white-space: pre;" transform="translate(320.71,0)">5.0M</text></g><g class="xtick"><text text-anchor="middle" x="0" y="601" style="font-family: 'Roboto Mono', 'SF Mono', Menlo, Consolas, 'Liberation Mono', monospace; font-size: 10px; fill: rgb(205, 205, 205); fill-opacity: 1; white-space: pre;" transform="translate(366.9,0)">10M</text></g><g class="xtick"><text text-anchor="middle" x="0" y="601" style="font-family: 'Roboto Mono', 'SF Mono', Menlo, Consolas, 'Liberation Mono', monospace; font-size: 10px; fill: rgb(205, 205, 205); fill-opacity: 1; white-space: pre;" transform="translate(413.1,0)">20M</text></g><g class="xtick"><text text-anchor="middle" x="0" y="601" style="font-family: 'Roboto Mono', 'SF Mono', Menlo, Consolas, 'Liberation Mono', monospace; font-size: 10px; fill: rgb(205, 205, 205); fill-opacity: 1; white-space: pre;" transform="translate(474.16,0)">50M</text></g><g class="xtick"><text text-anchor="middle" x="0" y="601" style="font-family: 'Roboto Mono', 'SF Mono', Menlo, Consolas, 'Liberation Mono', monospace; font-size: 10px; fill: rgb(205, 205, 205); fill-opacity: 1; white-space: pre;" transform="translate(520.35,0)">100M</text></g><g class="xtick"><text text-anchor="middle" x="0" y="601" style="font-family: 'Roboto Mono', 'SF Mono', Menlo, Consolas, 'Liberation Mono', monospace; font-size: 10px; fill: rgb(205, 205, 205); fill-opacity: 1; white-space: pre;" transform="translate(566.55,0)">200M</text></g><g class="xtick"><text text-anchor="middle" x="0" y="601" style="font-family: 'Roboto Mono', 'SF Mono', Menlo, Consolas, 'Liberation Mono', monospace; font-size: 10px; fill: rgb(205, 205, 205); fill-opacity: 1; white-space: pre;" transform="translate(627.61,0)">500M</text></g><g class="xtick"><text text-anchor="middle" x="0" y="601" style="font-family: 'Roboto Mono', 'SF Mono', Menlo, Consolas, 'Liberation Mono', monospace; font-size: 10px; fill: rgb(205, 205, 205); fill-opacity: 1; white-space: pre;" transform="translate(673.81,0)">1.0G</text></g><g class="xtick"><text text-anchor="middle" x="0" y="601" style="font-family: 'Roboto Mono', 'SF Mono', Menlo, Consolas, 'Liberation Mono', monospace; font-size: 10px; fill: rgb(205, 205, 205); fill-opacity: 1; white-space: pre;" transform="translate(720,0)">2.0G</text></g></g><g class="yaxislayer-above"><g class="ytick"><text text-anchor="end" x="59" y="4.199999999999999" transform="translate(0,590)" style="font-family: 'Roboto Mono', 'SF Mono', Menlo, Consolas, 'Liberation Mono', monospace; font-size: 12px; fill: rgb(255, 255, 255); fill-opacity: 1; white-space: pre;">100k</text></g><g class="ytick"><text text-anchor="end" x="59" y="4.199999999999999" style="font-family: 'Roboto Mono', 'SF Mono', Menlo, Consolas, 'Liberation Mono', monospace; font-size: 12px; fill: rgb(255, 255, 255); fill-opacity: 1; white-space: pre;" transform="translate(0,547.6800000000001)">200k</text></g><g class="ytick"><text text-anchor="end" x="59" y="4.199999999999999" style="font-family: 'Roboto Mono', 'SF Mono', Menlo, Consolas, 'Liberation Mono', monospace; font-size: 12px; fill: rgb(255, 255, 255); fill-opacity: 1; white-space: pre;" transform="translate(0,491.74)">500k</text></g><g class="ytick"><text text-anchor="end" x="59" y="4.199999999999999" style="font-family: 'Roboto Mono', 'SF Mono', Menlo, Consolas, 'Liberation Mono', monospace; font-size: 12px; fill: rgb(255, 255, 255); fill-opacity: 1; white-space: pre;" transform="translate(0,449.42)">1.0M</text></g><g class="ytick"><text text-anchor="end" x="59" y="4.199999999999999" style="font-family: 'Roboto Mono', 'SF Mono', Menlo, Consolas, 'Liberation Mono', monospace; font-size: 12px; fill: rgb(255, 255, 255); fill-opacity: 1; white-space: pre;" transform="translate(0,407.1)">2.0M</text></g><g class="ytick"><text text-anchor="end" x="59" y="4.199999999999999" style="font-family: 'Roboto Mono', 'SF Mono', Menlo, Consolas, 'Liberation Mono', monospace; font-size: 12px; fill: rgb(255, 255, 255); fill-opacity: 1; white-space: pre;" transform="translate(0,351.16)">5.0M</text></g><g class="ytick"><text text-anchor="end" x="59" y="4.199999999999999" style="font-family: 'Roboto Mono', 'SF Mono', Menlo, Consolas, 'Liberation Mono', monospace; font-size: 12px; fill: rgb(255, 255, 255); fill-opacity: 1; white-space: pre;" transform="translate(0,308.84000000000003)">10M</text></g><g class="ytick"><text text-anchor="end" x="59" y="4.199999999999999" style="font-family: 'Roboto Mono', 'SF Mono', Menlo, Consolas, 'Liberation Mono', monospace; font-size: 12px; fill: rgb(255, 255, 255); fill-opacity: 1; white-space: pre;" transform="translate(0,266.52)">20M</text></g><g class="ytick"><text text-anchor="end" x="59" y="4.199999999999999" style="font-family: 'Roboto Mono', 'SF Mono', Menlo, Consolas, 'Liberation Mono', monospace; font-size: 12px; fill: rgb(255, 255, 255); fill-opacity: 1; white-space: pre;" transform="translate(0,210.58)">50M</text></g><g class="ytick"><text text-anchor="end" x="59" y="4.199999999999999" style="font-family: 'Roboto Mono', 'SF Mono', Menlo, Consolas, 'Liberation Mono', monospace; font-size: 12px; fill: rgb(255, 255, 255); fill-opacity: 1; white-space: pre;" transform="translate(0,168.26)">100M</text></g><g class="ytick"><text text-anchor="end" x="59" y="4.199999999999999" style="font-family: 'Roboto Mono', 'SF Mono', Menlo, Consolas, 'Liberation Mono', monospace; font-size: 12px; fill: rgb(255, 255, 255); fill-opacity: 1; white-space: pre;" transform="translate(0,125.94)">200M</text></g><g class="ytick"><text text-anchor="end" x="59" y="4.199999999999999" style="font-family: 'Roboto Mono', 'SF Mono', Menlo, Consolas, 'Liberation Mono', monospace; font-size: 12px; fill: rgb(255, 255, 255); fill-opacity: 1; white-space: pre;" transform="translate(0,70)">500M</text></g></g><g class="overaxes-above"/></g></g><g class="polarlayer"/><g class="smithlayer"/><g class="ternarylayer"/><g class="geolayer"/><g class="funnelarealayer"/><g class="pielayer"/><g class="iciclelayer"/><g class="treemaplayer"/><g class="sunburstlayer"/><g class="glimages"/><defs id="topdefs-5f33f7"><g class="clips"/><clipPath id="legend5f33f7"><rect width="254" height="105" x="0" y="0"/></clipPath></defs><g class="layer-above"><g class="imagelayer"/><g class="shapelayer"><g class="shape-group" data-index="0" clip-path="url(#clip5f33f7xy)"><path data-index="0" fill-rule="evenodd" d="M567.74,132.43L673.81,132.43" style="opacity: 1; stroke: rgb(118, 185, 0); stroke-opacity: 1; fill: rgb(0, 0, 0); fill-opacity: 0; stroke-dasharray: 3px, 3px; stroke-width: 2px;"/></g><g class="shape-group" data-index="1" clip-path="url(#clip5f33f7xy)"><path data-index="1" fill-rule="evenodd" d="M516.47,176.15L673.81,176.15" style="opacity: 1; stroke: rgb(0, 133, 100); stroke-opacity: 1; fill: rgb(0, 0, 0); fill-opacity: 0; stroke-dasharray: 3px, 3px; stroke-width: 2px;"/></g><g class="shape-group" data-index="2" clip-path="url(#clip5f33f7xy)"><path data-index="2" fill-rule="evenodd" d="M414.16,369.21L673.81,369.21" style="opacity: 1; stroke: rgb(250, 194, 0); stroke-opacity: 1; fill: rgb(0, 0, 0); fill-opacity: 0; stroke-dasharray: 3px, 3px; stroke-width: 2px;"/></g><g class="shape-group" data-index="3" clip-path="url(#clip5f33f7xy)"><path data-index="3" fill-rule="evenodd" d="M277.64,458.73L673.81,458.73" style="opacity: 1; stroke: rgb(150, 150, 150); stroke-opacity: 1; fill: rgb(0, 0, 0); fill-opacity: 0; stroke-dasharray: 3px, 3px; stroke-width: 2px;"/></g><g class="shape-group" data-index="4" clip-path="url(#clip5f33f7xy)"><path data-index="4" fill-rule="evenodd" d="M226.49,504.14L673.81,504.14" style="opacity: 1; stroke: rgb(118, 118, 118); stroke-opacity: 1; fill: rgb(0, 0, 0); fill-opacity: 0; stroke-dasharray: 3px, 3px; stroke-width: 2px;"/></g><g class="shape-group" data-index="5" clip-path="url(#clip5f33f7y)"><path data-index="5" fill-rule="evenodd" d="M723,131L707,131" style="opacity: 1; stroke: rgb(205, 205, 205); stroke-opacity: 1; fill: rgb(0, 0, 0); fill-opacity: 0; stroke-width: 1.5px;"/></g><g class="shape-group" data-index="6" clip-path="url(#clip5f33f7y)"><path data-index="6" fill-rule="evenodd" d="M723,369L707,369" style="opacity: 1; stroke: rgb(205, 205, 205); stroke-opacity: 1; fill: rgb(0, 0, 0); fill-opacity: 0; stroke-width: 1.5px;"/></g><g class="shape-group" data-index="7" clip-path="url(#clip5f33f7y)"><path data-index="7" fill-rule="evenodd" d="M723,369L723,131" style="opacity: 1; stroke: rgb(205, 205, 205); stroke-opacity: 1; fill: rgb(0, 0, 0); fill-opacity: 0; stroke-width: 1.5px;"/></g></g></g><g class="infolayer"><g class="legend" pointer-events="all" transform="translate(73.2,80.4)"><rect class="bg" shape-rendering="crispEdges" style="stroke: rgb(58, 58, 58); stroke-opacity: 1; fill: rgb(0, 0, 0); fill-opacity: 0; stroke-width: 0px;" width="254" height="105" x="0" y="0"/><g class="scrollbox" transform="" clip-path="url(#legend5f33f7)"><g class="groups"><g class="traces" transform="translate(0,14.5)" style="opacity: 1;"><text class="legendtext" text-anchor="start" x="40" y="3.9" style="font-family: 'NVIDIA Sans', Arial, Helvetica, sans-serif; font-size: 10px; fill: rgb(205, 205, 205); fill-opacity: 1; white-space: pre;">Concurrent Positional Indexer (Flash Indexer)</text><g class="layers" style="opacity: 1;"><g class="legendfill"/><g class="legendlines"><path class="js-line" d="M5,0h30" style="fill: none; stroke: rgb(118, 185, 0); stroke-opacity: 1; stroke-width: 2.5px;"/></g><g class="legendsymbols"><g class="legendpoints"><path class="scatterpts" transform="translate(20,0)" d="M3.5,0A3.5,3.5 0 1,1 0,-3.5A3.5,3.5 0 0,1 3.5,0Z" style="opacity: 1; stroke-width: 1px; fill: rgb(118, 185, 0); fill-opacity: 1; stroke: rgb(0, 0, 0); stroke-opacity: 1;"/></g></g></g><rect class="legendtoggle" x="0" y="-9.5" width="248.203125" height="19" style="fill: rgb(0, 0, 0); fill-opacity: 0;"/></g><g class="traces" transform="translate(0,33.5)" style="opacity: 1;"><text class="legendtext" text-anchor="start" x="40" y="3.9" style="font-family: 'NVIDIA Sans', Arial, Helvetica, sans-serif; font-size: 10px; fill: rgb(205, 205, 205); fill-opacity: 1; white-space: pre;">Concurrent Radix Tree</text><g class="layers" style="opacity: 1;"><g class="legendfill"/><g class="legendlines"><path class="js-line" d="M5,0h30" style="fill: none; stroke: rgb(0, 133, 100); stroke-opacity: 1; stroke-width: 2.5px;"/></g><g class="legendsymbols"><g class="legendpoints"><path class="scatterpts" transform="translate(20,0)" d="M3.5,0A3.5,3.5 0 1,1 0,-3.5A3.5,3.5 0 0,1 3.5,0Z" style="opacity: 1; stroke-width: 1px; fill: rgb(0, 133, 100); fill-opacity: 1; stroke: rgb(0, 0, 0); stroke-opacity: 1;"/></g></g></g><rect class="legendtoggle" x="0" y="-9.5" width="248.203125" height="19" style="fill: rgb(0, 0, 0); fill-opacity: 0;"/></g><g class="traces" transform="translate(0,52.5)" style="opacity: 1;"><text class="legendtext" text-anchor="start" x="40" y="3.9" style="font-family: 'NVIDIA Sans', Arial, Helvetica, sans-serif; font-size: 10px; fill: rgb(205, 205, 205); fill-opacity: 1; white-space: pre;">Radix Tree</text><g class="layers" style="opacity: 1;"><g class="legendfill"/><g class="legendlines"><path class="js-line" d="M5,0h30" style="fill: none; stroke: rgb(250, 194, 0); stroke-opacity: 1; stroke-width: 2.5px;"/></g><g class="legendsymbols"><g class="legendpoints"><path class="scatterpts" transform="translate(20,0)" d="M3.5,0A3.5,3.5 0 1,1 0,-3.5A3.5,3.5 0 0,1 3.5,0Z" style="opacity: 1; stroke-width: 1px; fill: rgb(250, 194, 0); fill-opacity: 1; stroke: rgb(0, 0, 0); stroke-opacity: 1;"/></g></g></g><rect class="legendtoggle" x="0" y="-9.5" width="248.203125" height="19" style="fill: rgb(0, 0, 0); fill-opacity: 0;"/></g><g class="traces" transform="translate(0,71.5)" style="opacity: 1;"><text class="legendtext" text-anchor="start" x="40" y="3.9" style="font-family: 'NVIDIA Sans', Arial, Helvetica, sans-serif; font-size: 10px; fill: rgb(205, 205, 205); fill-opacity: 1; white-space: pre;">Inverted Index</text><g class="layers" style="opacity: 1;"><g class="legendfill"/><g class="legendlines"><path class="js-line" d="M5,0h30" style="fill: none; stroke: rgb(150, 150, 150); stroke-opacity: 1; stroke-width: 2.5px;"/></g><g class="legendsymbols"><g class="legendpoints"><path class="scatterpts" transform="translate(20,0)" d="M3.5,0A3.5,3.5 0 1,1 0,-3.5A3.5,3.5 0 0,1 3.5,0Z" style="opacity: 1; stroke-width: 1px; fill: rgb(150, 150, 150); fill-opacity: 1; stroke: rgb(0, 0, 0); stroke-opacity: 1;"/></g></g></g><rect class="legendtoggle" x="0" y="-9.5" width="248.203125" height="19" style="fill: rgb(0, 0, 0); fill-opacity: 0;"/></g><g class="traces" transform="translate(0,90.5)" style="opacity: 1;"><text class="legendtext" text-anchor="start" x="40" y="3.9" style="font-family: 'NVIDIA Sans', Arial, Helvetica, sans-serif; font-size: 10px; fill: rgb(205, 205, 205); fill-opacity: 1; white-space: pre;">Naive Nested Map</text><g class="layers" style="opacity: 1;"><g class="legendfill"/><g class="legendlines"><path class="js-line" d="M5,0h30" style="fill: none; stroke: rgb(118, 118, 118); stroke-opacity: 1; stroke-width: 2.5px;"/></g><g class="legendsymbols"><g class="legendpoints"><path class="scatterpts" transform="translate(20,0)" d="M3.5,0A3.5,3.5 0 1,1 0,-3.5A3.5,3.5 0 0,1 3.5,0Z" style="opacity: 1; stroke-width: 1px; fill: rgb(118, 118, 118); fill-opacity: 1; stroke: rgb(0, 0, 0); stroke-opacity: 1;"/></g></g></g><rect class="legendtoggle" x="0" y="-9.5" width="248.203125" height="19" style="fill: rgb(0, 0, 0); fill-opacity: 0;"/></g></g></g><rect class="scrollbar" rx="20" ry="3" width="0" height="0" style="fill: rgb(128, 139, 164); fill-opacity: 1;" x="0" y="0"/></g><g class="g-gtitle"><text class="gtitle" x="15.5" y="13" text-anchor="start" dy="0.7em" style="opacity: 1; font-family: 'NVIDIA Sans', Arial, Helvetica, sans-serif; font-size: 18px; fill: rgb(255, 255, 255); fill-opacity: 1; white-space: pre;">ACHIEVED VS. OFFERED THROUGHPUT  (HIGHER IS BETTER)</text></g><g class="g-xtitle"><text class="xtitle" x="390" y="636" text-anchor="middle" style="opacity: 1; font-family: 'NVIDIA Sans', Arial, Helvetica, sans-serif; font-size: 12px; fill: rgb(205, 205, 205); fill-opacity: 1; white-space: pre;">Offered Throughput (block ops/s)</text></g><g class="g-ytitle" transform="translate(-0.90625,0)"><text class="ytitle" transform="rotate(-90,26,330)" x="26" y="330" text-anchor="middle" style="opacity: 1; font-family: 'NVIDIA Sans', Arial, Helvetica, sans-serif; font-size: 12px; fill: rgb(205, 205, 205); fill-opacity: 1; white-space: pre;">Achieved Throughput (block ops/s)</text></g><g class="annotation" data-index="0" style="opacity: 1;"><g class="annotation-text-g" transform="rotate(0,673.81,103.48000000000002)"><g class="cursor-pointer" transform="translate(624,95)"><rect class="bg" x="0.5" y="0.5" width="99" height="16" style="stroke-width: 1px; stroke: rgb(0, 0, 0); stroke-opacity: 0; fill: rgb(0, 0, 0); fill-opacity: 0;"/><text class="annotation-text" text-anchor="middle" x="49.8203125" y="12" style="font-family: 'NVIDIA Sans', Arial, Helvetica, sans-serif; font-size: 10px; fill: rgb(255, 255, 255); fill-opacity: 1; white-space: pre;">PEAK THROUGHPUT</text></g></g></g><g class="annotation" data-index="1" style="opacity: 1;"><g class="annotation-text-g" transform="rotate(0,673.81,120.98000000000002)"><g class="cursor-pointer" transform="translate(657,112)"><rect class="bg" x="0.5" y="0.5" width="32" height="17" style="stroke-width: 1px; stroke: rgb(0, 0, 0); stroke-opacity: 0; fill: rgb(0, 0, 0); fill-opacity: 0;"/><text class="annotation-text" text-anchor="middle" x="16.453125" y="13" style="font-family: 'Roboto Mono', 'SF Mono', Menlo, Consolas, 'Liberation Mono', monospace; font-size: 12px; fill: rgb(118, 185, 0); fill-opacity: 1; white-space: pre;"><tspan style="font-weight:bold">170M</tspan></text></g></g></g><g class="annotation" data-index="2" style="opacity: 1;"><g class="annotation-text-g" transform="rotate(0,673.81,139.98000000000002)"><g class="cursor-pointer" transform="translate(640,132)"><rect class="bg" x="0.5" y="0.5" width="66" height="15" style="stroke-width: 1px; stroke: rgb(0, 0, 0); stroke-opacity: 0; fill: rgb(0, 0, 0); fill-opacity: 0;"/><text class="annotation-text" text-anchor="middle" x="33.6015625" y="11" style="font-family: 'NVIDIA Sans', Arial, Helvetica, sans-serif; font-size: 9px; fill: rgb(118, 185, 0); fill-opacity: 1; white-space: pre;"><tspan style="font-weight:bold">Dynamo v1.0.0</tspan></text></g></g></g><g class="annotation" data-index="3" style="opacity: 1;"><g class="annotation-text-g" transform="rotate(0,673.81,164.70999999999998)"><g class="cursor-pointer" transform="translate(661,156)"><rect class="bg" x="0.5" y="0.5" width="25" height="17" style="stroke-width: 1px; stroke: rgb(0, 0, 0); stroke-opacity: 0; fill: rgb(0, 0, 0); fill-opacity: 0;"/><text class="annotation-text" text-anchor="middle" x="12.84375" y="13" style="font-family: 'Roboto Mono', 'SF Mono', Menlo, Consolas, 'Liberation Mono', monospace; font-size: 12px; fill: rgb(0, 133, 100); fill-opacity: 1; white-space: pre;"><tspan style="font-weight:bold">83M</tspan></text></g></g></g><g class="annotation" data-index="4" style="opacity: 1;"><g class="annotation-text-g" transform="rotate(0,673.81,183.70999999999998)"><g class="cursor-pointer" transform="translate(640,176)"><rect class="bg" x="0.5" y="0.5" width="66" height="15" style="stroke-width: 1px; stroke: rgb(0, 0, 0); stroke-opacity: 0; fill: rgb(0, 0, 0); fill-opacity: 0;"/><text class="annotation-text" text-anchor="middle" x="33.6015625" y="11" style="font-family: 'NVIDIA Sans', Arial, Helvetica, sans-serif; font-size: 9px; fill: rgb(0, 133, 100); fill-opacity: 1; white-space: pre;"><tspan style="font-weight:bold">Dynamo v1.0.0</tspan></text></g></g></g><g class="annotation" data-index="5" style="opacity: 1;"><g class="annotation-text-g" transform="rotate(0,673.81,357.77)"><g class="cursor-pointer" transform="translate(665,349)"><rect class="bg" x="0.5" y="0.5" width="17" height="17" style="stroke-width: 1px; stroke: rgb(0, 0, 0); stroke-opacity: 0; fill: rgb(0, 0, 0); fill-opacity: 0;"/><text class="annotation-text" text-anchor="middle" x="9.2265625" y="13" style="font-family: 'Roboto Mono', 'SF Mono', Menlo, Consolas, 'Liberation Mono', monospace; font-size: 12px; fill: rgb(250, 194, 0); fill-opacity: 1; white-space: pre;"><tspan style="font-weight:bold">4M</tspan></text></g></g></g><g class="annotation" data-index="6" style="opacity: 1;"><g class="annotation-text-g" transform="rotate(0,673.81,376.77)"><g class="cursor-pointer" transform="translate(640,369)"><rect class="bg" x="0.5" y="0.5" width="66" height="15" style="stroke-width: 1px; stroke: rgb(0, 0, 0); stroke-opacity: 0; fill: rgb(0, 0, 0); fill-opacity: 0;"/><text class="annotation-text" text-anchor="middle" x="33.6015625" y="11" style="font-family: 'NVIDIA Sans', Arial, Helvetica, sans-serif; font-size: 9px; fill: rgb(250, 194, 0); fill-opacity: 1; white-space: pre;"><tspan style="font-weight:bold">Dynamo v0.1.0</tspan></text></g></g></g><g class="annotation" data-index="7" style="opacity: 1;"><g class="annotation-text-g" transform="rotate(0,673.81,447.29)"><g class="cursor-pointer" transform="translate(657,438)"><rect class="bg" x="0.5" y="0.5" width="32" height="17" style="stroke-width: 1px; stroke: rgb(0, 0, 0); stroke-opacity: 0; fill: rgb(0, 0, 0); fill-opacity: 0;"/><text class="annotation-text" text-anchor="middle" x="16.453125" y="13" style="font-family: 'Roboto Mono', 'SF Mono', Menlo, Consolas, 'Liberation Mono', monospace; font-size: 12px; fill: rgb(150, 150, 150); fill-opacity: 1; white-space: pre;"><tspan style="font-weight:bold">810K</tspan></text></g></g></g><g class="annotation" data-index="8" style="opacity: 1;"><g class="annotation-text-g" transform="rotate(0,673.81,466.29)"><g class="cursor-pointer" transform="translate(660,458)"><rect class="bg" x="0.5" y="0.5" width="27" height="15" style="stroke-width: 1px; stroke: rgb(0, 0, 0); stroke-opacity: 0; fill: rgb(0, 0, 0); fill-opacity: 0;"/><text class="annotation-text" text-anchor="middle" x="13.9296875" y="11" style="font-family: 'NVIDIA Sans', Arial, Helvetica, sans-serif; font-size: 9px; fill: rgb(150, 150, 150); fill-opacity: 1; white-space: pre;"><tspan style="font-weight:bold">Naive</tspan></text></g></g></g><g class="annotation" data-index="9" style="opacity: 1;"><g class="annotation-text-g" transform="rotate(0,673.81,492.69)"><g class="cursor-pointer" transform="translate(657,484)"><rect class="bg" x="0.5" y="0.5" width="32" height="17" style="stroke-width: 1px; stroke: rgb(0, 0, 0); stroke-opacity: 0; fill: rgb(0, 0, 0); fill-opacity: 0;"/><text class="annotation-text" text-anchor="middle" x="16.453125" y="13" style="font-family: 'Roboto Mono', 'SF Mono', Menlo, Consolas, 'Liberation Mono', monospace; font-size: 12px; fill: rgb(118, 118, 118); fill-opacity: 1; white-space: pre;"><tspan style="font-weight:bold">385K</tspan></text></g></g></g><g class="annotation" data-index="10" style="opacity: 1;"><g class="annotation-text-g" transform="rotate(0,673.81,511.69000000000005)"><g class="cursor-pointer" transform="translate(660,504)"><rect class="bg" x="0.5" y="0.5" width="27" height="15" style="stroke-width: 1px; stroke: rgb(0, 0, 0); stroke-opacity: 0; fill: rgb(0, 0, 0); fill-opacity: 0;"/><text class="annotation-text" text-anchor="middle" x="13.9296875" y="11" style="font-family: 'NVIDIA Sans', Arial, Helvetica, sans-serif; font-size: 9px; fill: rgb(118, 118, 118); fill-opacity: 1; white-space: pre;"><tspan style="font-weight:bold">Naive</tspan></text></g></g></g><g class="annotation" data-index="11" style="opacity: 1;"><g class="annotation-text-g" transform="rotate(0,740,250)"><g class="cursor-pointer" transform="translate(729,242)"><rect class="bg" x="0.5" y="0.5" width="21" height="16" style="stroke-width: 1px; stroke: rgb(0, 0, 0); stroke-opacity: 0; fill: rgb(0, 0, 0); fill-opacity: 0;"/><text class="annotation-text" text-anchor="middle" x="11" y="12" style="font-family: 'NVIDIA Sans', Arial, Helvetica, sans-serif; font-size: 10px; fill: rgb(255, 255, 255); fill-opacity: 1; white-space: pre;">48×</text></g></g></g></g></svg>